<svg xmlns="http://www.w3.org/2000/svg" viewBox="0 0 36 36"><path fill="#EFEFEF" d="M8.377 4.167c6.917 0 11.667-3.583 15-3.583S33.71 2.5 33.71 17.833s-9.417 17.583-13.083 17.583C3.46 35.417-3.873 4.167 8.377 4.167z"/><path fill="#A4AFC1" d="m10.242 8.988 1.415-1.415.707.707-1.415 1.415zM6.176 13.054 7.59 11.64l.707.707-1.415 1.415zM6.177 8.103l.706-.708L8.298 8.81l-.707.708zM23.732 11.513c-.827 0-1.5-.673-1.5-1.5s.673-1.5 1.5-1.5 1.5.673 1.5 1.5-.672 1.5-1.5 1.5zm0-2c-.275 0-.5.225-.5.5s.225.5.5.5.5-.225.5-.5-.224-.5-.5-.5z"/><path fill="#2FDF84" d="M27.25 20.007c0-.689-.515-1.25-1.15-1.25h-9.187c-.636 0-1.15.561-1.15 1.25s.514 1.25 1.15 1.25H26.1c.635 0 1.15-.561 1.15-1.25z"/><path fill="#F3F3F1" d="m9.107 23.8 3.949 4.089c.891.918 2.123 1.361 3.483 1.361 1.36 0 2.592-.48 3.484-1.401l2.37-2.472c.467-.482.451-1.28-.035-1.781-.486-.502-1.259-.519-1.725-.037l-2.45 2.444c-.423.438-1.009.621-1.656.621s-1.233-.183-1.657-.621l-3.935-4.091c-.424-.438-.638-1.078-.638-1.747 0-.668.214-1.272.638-1.71l3.923-4.106c.624-.565 1.239-.681 1.669-.681.647 0 .922.151 1.656.697l2.45 1.943c.467.483 1.24.466 1.726-.036.486-.503.502-1.3.035-1.782l-2.37-1.971c-1.036-.888-1.602-1.141-2.19-1.247l-.031-.007 2.241-2.347c.469-.482.452-1.281-.034-1.782-.486-.502-1.26-.518-1.728-.036l-9.174 9.47c-.891.921-1.357 2.191-1.357 3.595-.001 1.406.465 2.716 1.356 3.635z"/><path fill="#00B871" d="M18.013 20.007c0-.689.514-1.25 1.15-1.25h-2.25c-.636 0-1.15.561-1.15 1.25s.514 1.25 1.15 1.25h2.25c-.635 0-1.15-.561-1.15-1.25z"/><path fill="#D5DBE1" d="m18.182 14.365 2.45 1.943c.467.483 1.24.466 1.726-.036.072-.074.112-.165.164-.25l-2.089-1.657c-.734-.546-1.009-.697-1.656-.697-.31 0-.717.066-1.153.312.16.1.335.22.558.385z"/><path fill="#D5DBE1" d="M15.306 27.889 11.357 23.8C10.466 22.881 10 21.571 10 20.167s.466-2.675 1.357-3.595l8.849-9.134c-.057-.105-.11-.211-.197-.301-.486-.502-1.26-.517-1.728-.036l-9.174 9.47c-.891.921-1.357 2.191-1.357 3.595s.466 2.714 1.357 3.633l3.949 4.089c.891.918 2.123 1.361 3.483 1.361.384 0 .753-.048 1.111-.124-.901-.183-1.711-.584-2.344-1.236z"/><path fill="#D5DBE1" d="m20.432 26.003 2.118-2.113c-.056-.102-.108-.207-.193-.295-.486-.502-1.259-.519-1.725-.036l-2.45 2.444c-.155.16-.338.276-.531.371.335.165.715.249 1.125.249.647.001 1.232-.182 1.656-.62z"/><path d="M26.1 22.007h-9.187c-1.047 0-1.899-.897-1.899-2s.853-2 1.899-2H26.1c1.048 0 1.9.897 1.9 2s-.853 2-1.9 2zm-9.187-2.5c-.217 0-.399.229-.399.5s.183.5.399.5H26.1c.217 0 .4-.229.4-.5s-.184-.5-.4-.5h-9.187z"/><path d="M16.538 30c-1.621 0-3.011-.55-4.021-1.589l-3.949-4.09C7.557 23.278 7 21.803 7 20.167c0-1.61.557-3.072 1.568-4.117l9.174-9.47c.362-.374.85-.58 1.371-.58h.001c.54 0 1.049.218 1.434.614.766.792.78 2.061.032 2.828l-1.443 1.511c.412.227.849.547 1.374.997l2.361 1.963a2.06 2.06 0 0 1 .024 2.882 1.989 1.989 0 0 1-1.435.615h-.002a1.882 1.882 0 0 1-1.367-.581l-2.377-1.876c-.668-.497-.783-.534-1.19-.534-.422 0-.803.159-1.164.486l-3.886 4.069c-.282.291-.43.702-.43 1.191 0 .498.155.945.427 1.226l3.937 4.091c.251.26.627.392 1.116.392.49 0 .866-.132 1.116-.392l2.461-2.454a1.882 1.882 0 0 1 1.357-.57h.002c.539 0 1.049.219 1.434.616.765.79.78 2.058.034 2.825l-2.365 2.469C19.542 29.422 18.113 30 16.538 30zm2.575-22.5a.4.4 0 0 0-.294.124l-9.173 9.469c-.739.763-1.146 1.855-1.146 3.074 0 1.244.407 2.349 1.146 3.11l.001.002 3.948 4.089c.72.74 1.737 1.132 2.943 1.132 1.183 0 2.202-.405 2.946-1.173l2.365-2.469c.188-.193.172-.531-.032-.741a.496.496 0 0 0-.356-.159.396.396 0 0 0-.29.122l-2.46 2.454c-.526.546-1.285.84-2.186.84-.898 0-1.658-.294-2.195-.85l-3.937-4.091c-.546-.565-.848-1.371-.848-2.268 0-.874.302-1.667.849-2.231l3.921-4.104c.67-.609 1.421-.912 2.21-.912.878 0 1.315.258 2.104.845l2.468 1.957c.172.168.285.189.364.189a.5.5 0 0 0 .357-.159c.202-.21.219-.549.034-.739l-2.311-1.915c-1.026-.881-1.474-1.02-1.844-1.086a.777.777 0 0 1-.595-.51.746.746 0 0 1 .155-.753L19.498 8.4c.189-.195.173-.533-.03-.743a.494.494 0 0 0-.355-.157z"/></svg>